<svg width="1080" height="232" viewBox="0 0 1080 232" fill="none" xmlns="http://www.w3.org/2000/svg">
<path d="M144 160L168 136L192 160L168 184L144 160Z" fill="#F8CD46"/>
<path d="M72 40L0 112L72 184L168 88L216 136L240 112L168 40L72 136L48 112L96 64L72 40Z" fill="url(#paint0_linear)"/>
<path d="M329.968 172L287.484 51.5997H316.724L341.836 131.58L365.744 51.5997H387.416L411.324 131.58L436.436 51.5997H465.676L423.192 172H400.488L376.58 96.3197L352.672 172H329.968Z" fill="white"/>
<path d="M545.814 126.248C545.814 129.688 545.584 133.529 545.126 137.772H483.894C484.123 143.161 485.958 147.346 489.398 150.328C492.838 153.309 497.482 154.8 503.33 154.8C511.356 154.8 516.516 152.22 518.81 147.06H544.61C543.348 155.201 538.876 161.852 531.194 167.012C523.626 172.057 514.338 174.58 503.33 174.58C489.226 174.58 478.103 170.681 469.962 162.884C461.82 155.086 457.75 144.308 457.75 130.548C457.75 117.017 461.82 106.353 469.962 98.5557C478.103 90.6437 488.939 86.6877 502.47 86.6877C515.312 86.6877 525.747 90.3571 533.774 97.6957C541.8 105.034 545.814 114.552 545.814 126.248ZM483.894 121.432H519.842C519.727 115.928 518.179 111.685 515.198 108.704C512.216 105.722 507.916 104.232 502.298 104.232C496.679 104.232 492.207 105.837 488.882 109.048C485.671 112.144 484.008 116.272 483.894 121.432Z" fill="white"/>
<path d="M614.188 86.8597C625.54 86.8597 634.713 90.8731 641.708 98.8997C648.817 106.926 652.372 117.476 652.372 130.548C652.372 143.505 648.76 154.054 641.536 162.196C634.312 170.222 624.966 174.236 613.5 174.236C607.537 174.236 602.205 172.917 597.504 170.28C592.802 167.642 589.362 164.317 587.184 160.304V172H560.868V51.4277H587.184V100.964C589.362 96.8357 592.917 93.4531 597.848 90.8157C602.778 88.1784 608.225 86.8597 614.188 86.8597ZM605.932 152.392C611.665 152.392 616.366 150.385 620.036 146.372C623.705 142.244 625.54 136.969 625.54 130.548C625.54 124.126 623.705 118.909 620.036 114.896C616.366 110.882 611.665 108.876 605.932 108.876C599.969 108.876 595.153 110.882 591.484 114.896C587.814 118.909 585.98 124.126 585.98 130.548C585.98 137.084 587.814 142.358 591.484 146.372C595.268 150.385 600.084 152.392 605.932 152.392Z" fill="white"/>
<path d="M669.06 172V51.5997H742.676V74.9917H696.924V107.5H742.676V130.376H696.924V172H669.06Z" fill="white"/>
<path d="M834.518 162.196C826.262 170.452 815.14 174.58 801.15 174.58C787.161 174.58 775.981 170.452 767.61 162.196C759.24 153.94 755.054 143.39 755.054 130.548C755.054 117.705 759.24 107.213 767.61 99.0717C775.981 90.8157 787.161 86.6877 801.15 86.6877C815.14 86.6877 826.262 90.8157 834.518 99.0717C842.889 107.213 847.074 117.705 847.074 130.548C847.074 143.39 842.889 153.94 834.518 162.196ZM801.15 152.22C807.228 152.22 812.044 150.213 815.598 146.2C819.153 142.186 820.93 136.969 820.93 130.548C820.93 124.126 819.153 118.909 815.598 114.896C812.044 110.882 807.228 108.876 801.15 108.876C794.958 108.876 790.085 110.882 786.53 114.896C783.09 118.909 781.37 124.126 781.37 130.548C781.37 136.969 783.09 142.186 786.53 146.2C790.085 150.213 794.958 152.22 801.15 152.22Z" fill="white"/>
<path d="M862.204 172V51.5997H888.52V172H862.204Z" fill="white"/>
<path d="M995.039 172H962.875L936.559 136.052V172H910.243V51.5997H936.559V123.668L963.563 89.0957H994.523L961.499 128.312L995.039 172Z" fill="white"/>
<path d="M1037.33 174.58C1025.41 174.58 1015.89 172 1008.78 166.84C1001.67 161.68 998.117 155.086 998.117 147.06H1024.26C1024.26 149.926 1025.52 152.277 1028.05 154.112C1030.57 155.946 1033.84 156.864 1037.85 156.864C1040.72 156.864 1043.01 156.176 1044.73 154.8C1046.56 153.424 1047.48 151.532 1047.48 149.124C1047.48 145.34 1045.47 142.989 1041.46 142.072L1021.17 136.912C1014.4 135.192 1009.24 132.268 1005.69 128.14C1002.13 124.012 1000.35 118.966 1000.35 113.004C1000.35 105.206 1003.56 98.8997 1009.99 94.0837C1016.41 89.1531 1025.01 86.6877 1035.79 86.6877C1047.71 86.6877 1056.83 88.9811 1063.13 93.5677C1069.55 98.1544 1072.77 104.461 1072.77 112.488H1046.79C1046.79 109.621 1045.76 107.385 1043.7 105.78C1041.75 104.174 1039 103.372 1035.44 103.372C1032.57 103.372 1030.28 104.002 1028.56 105.264C1026.84 106.525 1025.98 108.188 1025.98 110.252C1025.98 113.921 1028.33 116.386 1033.03 117.648L1052.64 122.98C1059.18 124.7 1064.28 127.566 1067.95 131.58C1071.73 135.478 1073.63 140.294 1073.63 146.028C1073.63 154.628 1070.36 161.565 1063.82 166.84C1057.4 172 1048.57 174.58 1037.33 174.58Z" fill="white"/>
<defs>
<linearGradient id="paint0_linear" x1="59" y1="184" x2="240" y2="112" gradientUnits="userSpaceOnUse">
<stop stop-color="#438FF9"/>
<stop offset="1" stop-color="#2CB3FF"/>
</linearGradient>
</defs>
</svg>
